<svg width="630" height="590" fill="none" xmlns="http://www.w3.org/2000/svg"><g filter="url(#filter0_f)"><path d="M578.001 280.26C578.001 154.196 475.806 52 349.741 52c-126.064 0-228.26 102.196-228.26 228.26 0 126.065 102.196 228.26 228.26 228.26 126.065 0 228.26-102.195 228.26-228.26z" fill="url(#paint0_radial)"/></g><path d="M485.291 271.948c0-73.449-59.543-132.992-132.992-132.992-73.449 0-132.992 59.543-132.992 132.992 0 73.449 59.542 132.992 132.992 132.992 73.449 0 132.992-59.543 132.992-132.992z" fill="url(#paint1_radial)"/><path d="M310.208 506.176c-79.512 45.906-181.182 18.663-227.088-60.848-45.906-79.512-18.663-181.182 60.848-227.088 79.511-45.906 181.182-18.663 227.088 60.848 45.906 79.511 18.663 181.182-60.848 227.088z" fill="#000"/><path d="M310.208 506.176c-79.512 45.906-181.182 18.663-227.088-60.848-45.906-79.512-18.663-181.182 60.848-227.088 79.511-45.906 181.182-18.663 227.088 60.848 45.906 79.511 18.663 181.182-60.848 227.088z" fill="url(#paint2_radial)"/><path d="M409.843 335.67h37.079l15.73 12.35-52.809 50.528-52.809-50.528 33.147-11.228 19.662-1.122z" fill="url(#paint3_linear)"/><path d="M409.844 398.545l-31.461-38.174h62.921l-31.46 38.174z" fill="url(#paint4_linear)"/><path d="M441.304 360.37l21.348-12.351-52.809-50.528-52.809 50.528 21.349 12.351h62.921z" fill="url(#paint5_linear)"/><path d="M409.844 297.496l31.46 62.876h-62.921l31.461-62.876z" fill="url(#paint6_linear)"/><g opacity=".05" filter="url(#filter1_f)"><path d="M320.818 323.308s-19.588 71.461 46.722 113.125c56.076 35.235 112.71-37.131 70.552-74.037-28.885-25.285-29.638-44.206-31.472-68.876-2.911-39.134-62.868-57.288-85.802 29.788z" fill="url(#paint7_radial)"/></g><mask id="a" style="mask-type:alpha" maskUnits="userSpaceOnUse" x="406" y="184" width="88" height="75"><rect x="406.131" y="213.977" width="74.418" height="48.156" rx="4.528" transform="rotate(-22.993 406.131 213.977)" fill="#C4C4C4"/></mask><g mask="url(#a)"><path transform="rotate(-22.993 406.131 213.977)" fill="url(#paint8_radial)" d="M406.131 213.977h74.418v48.156h-74.418z"/><path d="M446.391 213.549l48.577 16.277-70.624 29.967 22.047-46.244z" fill="#000" fill-opacity=".04"/><path d="M452.727 231.029l-48.576-16.276 70.624-29.968-22.048 46.244z" fill="url(#paint9_linear)"/></g><g filter="url(#filter2_f)"><mask id="b" style="mask-type:alpha" maskUnits="userSpaceOnUse" x="425" y="252" width="49" height="39"><rect x="432.971" y="251.865" width="43.395" height="28.081" rx="2.64" transform="rotate(16.467 432.971 251.865)" fill="#C4C4C4"/></mask><g mask="url(#b)"><path transform="rotate(16.467 432.971 251.865)" fill="url(#paint10_radial)" d="M432.971 251.865h43.395v28.081h-43.395z"/><path d="M451.251 266.591l15.838 25.331-42.902-12.682 27.064-12.649z" fill="#000" fill-opacity=".04"/><path d="M447.628 276.81l-15.837-25.33 42.901 12.681-27.064 12.649z" fill="url(#paint11_linear)"/></g></g><defs><radialGradient id="paint0_radial" cx="0" cy="0" r="1" gradientUnits="userSpaceOnUse" gradientTransform="rotate(-90 315.998 -34.74) scale(229.257)"><stop stop-color="#FF5B5B"/><stop offset="1" stop-color="#220014" stop-opacity="0"/></radialGradient><radialGradient id="paint1_radial" cx="0" cy="0" r="1" gradientUnits="userSpaceOnUse" gradientTransform="rotate(90 40.175 312.123) scale(132.992)"><stop offset=".311" stop-color="#DD7600"/><stop offset=".624" stop-color="#B85800" stop-opacity=".32"/><stop offset="1" stop-color="#722D2D" stop-opacity="0"/></radialGradient><radialGradient id="paint2_radial" cx="0" cy="0" r="1" gradientUnits="userSpaceOnUse" gradientTransform="rotate(-45.912 611.786 105.096) scale(366.335 317.6)"><stop offset=".726"/><stop offset=".821" stop-color="#031424"/><stop offset=".9" stop-color="#7F331A"/></radialGradient><radialGradient id="paint7_radial" cx="0" cy="0" r="1" gradientUnits="userSpaceOnUse" gradientTransform="rotate(92.659 60.03 345.945) scale(127.623 113.96)"><stop stop-color="#DBBBFF"/><stop offset="1" stop-color="#0FF7EC"/></radialGradient><radialGradient id="paint8_radial" cx="0" cy="0" r="1" gradientUnits="userSpaceOnUse" gradientTransform="rotate(147.271 207.721 178.28) scale(85.8349 110.825)"><stop stop-color="#131313"/><stop offset=".474" stop-color="#633F33"/><stop offset="1" stop-color="#FFDCB4"/></radialGradient><radialGradient id="paint10_radial" cx="0" cy="0" r="1" gradientUnits="userSpaceOnUse" gradientTransform="rotate(147.271 200.54 196.303) scale(50.0524 64.6246)"><stop stop-color="#131313"/><stop offset=".474" stop-color="#59554F"/><stop offset="1" stop-color="#E2D4C4"/></radialGradient><linearGradient id="paint3_linear" x1="439.057" y1="335.67" x2="439.057" y2="415.39" gradientUnits="userSpaceOnUse"><stop stop-color="#78CCFB"/><stop offset="1" stop-color="#00BD90"/></linearGradient><linearGradient id="paint4_linear" x1="409.844" y1="415.387" x2="409.844" y2="360.371" gradientUnits="userSpaceOnUse"><stop stop-color="#17DAB0"/><stop offset="1" stop-color="#58E1FF"/></linearGradient><linearGradient id="paint5_linear" x1="380.208" y1="381.702" x2="380.208" y2="280.649" gradientUnits="userSpaceOnUse"><stop stop-color="#86F8FF"/><stop offset="1" stop-color="#ECA2FF"/></linearGradient><linearGradient id="paint6_linear" x1="409.363" y1="280.654" x2="409.363" y2="360.372" gradientUnits="userSpaceOnUse"><stop stop-color="#DEB5FF"/><stop offset="1" stop-color="#A7FAFF"/></linearGradient><linearGradient id="paint9_linear" x1="411.976" y1="216.412" x2="475.277" y2="183.334" gradientUnits="userSpaceOnUse"><stop stop-color="#F9D2A6"/><stop offset="1" stop-color="#141414"/></linearGradient><linearGradient id="paint11_linear" x1="434.699" y1="255.127" x2="475.456" y2="263.694" gradientUnits="userSpaceOnUse"><stop stop-color="#AFA69C"/><stop offset="1" stop-color="#141414"/></linearGradient><filter id="filter0_f" x="70.331" y=".849" width="558.822" height="558.822" filterUnits="userSpaceOnUse" color-interpolation-filters="sRGB"><feFlood flood-opacity="0" result="BackgroundImageFix"/><feBlend in="SourceGraphic" in2="BackgroundImageFix" result="shape"/><feGaussianBlur stdDeviation="25.575" result="effect1_foregroundBlur"/></filter><filter id="filter1_f" x="249.608" y="192.475" width="271.651" height="321.881" filterUnits="userSpaceOnUse" color-interpolation-filters="sRGB"><feFlood flood-opacity="0" result="BackgroundImageFix"/><feBlend in="SourceGraphic" in2="BackgroundImageFix" result="shape"/><feGaussianBlur stdDeviation="34.254" result="effect1_foregroundBlur"/></filter><filter id="filter2_f" x="420.535" y="247.389" width="58.526" height="48.181" filterUnits="userSpaceOnUse" color-interpolation-filters="sRGB"><feFlood flood-opacity="0" result="BackgroundImageFix"/><feBlend in="SourceGraphic" in2="BackgroundImageFix" result="shape"/><feGaussianBlur stdDeviation="2.558" result="effect1_foregroundBlur"/></filter></defs></svg>