<svg width="120" height="120" viewBox="0 0 120 120" fill="none" xmlns="http://www.w3.org/2000/svg">
  <g filter="url(#filter0_d_1_2)">
    <circle cx="60" cy="60" r="40" fill="url(#paint0_radial_1_2)"/>
    <path d="M72.6 53.4C71.1 47.7 65.4 45.6 59.7 47.1L57 37.8L51.9 39L54.6 48.3C53.4 48.6 52.2 48.9 51 49.2L48.3 39.9L43.2 41.1L45.9 50.4C44.7 50.7 43.5 51 42.3 51.3L35.7 53.1L37.2 58.5C37.2 58.5 41.1 57.3 41.1 57.6C43.2 57 44.4 58.5 44.7 59.7L51.3 82.5C51.3 83.4 51 84.9 49.5 85.2C49.5 85.2 45.6 86.4 45.6 86.4L45.9 92.4L52.2 90.6C53.4 90.3 54.6 90 55.8 89.7L58.5 99.3L63.6 98.1L60.9 88.5C62.1 88.2 63.3 87.9 64.5 87.6L67.2 97.2L72.3 96L69.6 86.4C77.1 84.3 82.2 79.8 81 72.6C80.1 66.9 76.5 64.2 71.4 63.6C75 62.4 77.4 59.7 76.8 55.2L72.6 53.4ZM72.3 72C73.2 77.4 65.1 79.5 60.9 80.7L56.7 68C60.9 66.9 71.4 66.3 72.3 72ZM66.9 55.2C67.8 60 60.9 61.8 57.3 62.7L53.4 51.3C57 50.4 66 50.1 66.9 55.2Z" fill="#0EA5E9"/>
  </g>
  <defs>
    <filter id="filter0_d_1_2" x="0" y="0" width="120" height="120" filterUnits="userSpaceOnUse" color-interpolation-filters="sRGB">
      <feFlood flood-opacity="0" result="BackgroundImageFix"/>
      <feColorMatrix in="SourceAlpha" type="matrix" values="0 0 0 0 0 0 0 0 0 0 0 0 0 0 0 0 0 0 127 0" result="hardAlpha"/>
      <feOffset/>
      <feGaussianBlur stdDeviation="10"/>
      <feComposite in2="hardAlpha" operator="out"/>
      <feColorMatrix type="matrix" values="0 0 0 0 0.055 0 0 0 0 0.647 0 0 0 0 0.914 0 0 0 0.5 0"/>
      <feBlend mode="normal" in2="BackgroundImageFix" result="effect1_dropShadow_1_2"/>
      <feBlend mode="normal" in="SourceGraphic" in2="effect1_dropShadow_1_2" result="shape"/>
    </filter>
    <radialGradient id="paint0_radial_1_2" cx="0" cy="0" r="1" gradientUnits="userSpaceOnUse" gradientTransform="translate(60 60) rotate(90) scale(40)">
      <stop stop-color="#0EA5E9"/>
      <stop offset="1" stop-color="#0369A1"/>
    </radialGradient>
  </defs>
</svg>
