
<svg width="120" height="120" viewBox="0 0 120 120" fill="none" xmlns="http://www.w3.org/2000/svg">
  <g filter="url(#filter0_d_1_4)">
    <rect x="30" y="20" width="60" height="60" rx="10" fill="url(#paint0_linear_1_4)"/>
    <circle cx="80" cy="40" r="15" fill="#C084FC"/>
    <circle cx="80" cy="40" r="12" fill="#A855F7"/>
    <circle cx="80" cy="40" r="8" fill="#9333EA"/>
    <circle cx="70" cy="35" r="5" fill="white" fill-opacity="0.5"/>
    <path d="M70 43V77C70 78.1046 69.1046 79 68 79H42C40.8954 79 40 78.1046 40 77V43C40 41.8954 40.8954 41 42 41H68C69.1046 41 70 41.8954 70 43Z" fill="#9333EA"/>
    <rect x="45" y="46" width="20" height="5" rx="2" fill="#C084FC"/>
    <rect x="45" y="56" width="15" height="5" rx="2" fill="#C084FC"/>
    <rect x="45" y="66" width="10" height="5" rx="2" fill="#C084FC"/>
  </g>
  <defs>
    <filter id="filter0_d_1_4" x="0" y="0" width="120" height="120" filterUnits="userSpaceOnUse" color-interpolation-filters="sRGB">
      <feFlood flood-opacity="0" result="BackgroundImageFix"/>
      <feColorMatrix in="SourceAlpha" type="matrix" values="0 0 0 0 0 0 0 0 0 0 0 0 0 0 0 0 0 0 127 0" result="hardAlpha"/>
      <feOffset dy="10"/>
      <feGaussianBlur stdDeviation="15"/>
      <feComposite in2="hardAlpha" operator="out"/>
      <feColorMatrix type="matrix" values="0 0 0 0 0.753 0 0 0 0 0.518 0 0 0 0 0.988 0 0 0 0.6 0"/>
      <feBlend mode="normal" in2="BackgroundImageFix" result="effect1_dropShadow_1_4"/>
      <feBlend mode="normal" in="SourceGraphic" in2="effect1_dropShadow_1_4" result="shape"/>
    </filter>
    <linearGradient id="paint0_linear_1_4" x1="30" y1="20" x2="90" y2="80" gradientUnits="userSpaceOnUse">
      <stop stop-color="#D946EF"/>
      <stop offset="1" stop-color="#8B5CF6"/>
    </linearGradient>
  </defs>
</svg>